<svg xmlns="http://www.w3.org/2000/svg" width="176" height="92" viewBox="0 0 176 92">
    <path fill="#000" fill-rule="nonzero" d="M60.349 16.086c-.07.328-.223.586-.457.773a1.21 1.21 0 0 1-.774.282c-.422 0-.762-.135-1.02-.405a1.308 1.308 0 0 1-.386-.931c0-.352.035-.698.105-1.037.07-.34.106-.674.106-1.002 0-1.711-.527-3.246-1.582-4.606-1.055-1.36-2.549-2.502-4.483-3.428-1.933-.925-4.283-1.634-7.048-2.127-2.766-.492-5.848-.738-9.246-.738-2.602 0-5.221.17-7.858.51-2.637.34-5.168.832-7.594 1.477a41.925 41.925 0 0 0-6.802 2.425c-2.11.973-3.944 2.098-5.502 3.375-1.559 1.278-2.784 2.696-3.674 4.254-.89 1.559-1.336 3.264-1.336 5.115 0 1.43.31 2.69.932 3.78.62 1.09 1.47 2.039 2.548 2.847 1.078.809 2.35 1.5 3.815 2.075a32.952 32.952 0 0 0 4.763 1.441c1.711.387 3.493.703 5.344.95 1.852.245 3.715.45 5.59.614l5.414.457c2.695.235 5.11.481 7.242.739 2.133.258 4.008.586 5.625.984 2.696.68 4.688 1.652 5.977 2.918 1.289 1.266 1.933 2.953 1.933 5.063 0 2.039-.562 3.832-1.687 5.379-1.125 1.546-2.66 2.847-4.605 3.902-1.946 1.055-4.22 1.851-6.82 2.39-2.602.54-5.391.81-8.368.81-3.234 0-6.076-.218-8.525-.651-2.45-.434-4.5-.914-6.153-1.442-1.652-.527-2.912-1.013-3.779-1.459-.867-.445-1.336-.691-1.406-.738-.422-.234-.633-.61-.633-1.125 0-.398.14-.72.422-.967.281-.246.586-.369.914-.369.258 0 .492.07.703.211.023 0 .428.205 1.213.615.785.41 1.957.862 3.515 1.354 1.56.492 3.487.937 5.784 1.336 2.297.398 4.968.597 8.015.597 3.024 0 5.696-.246 8.016-.738 2.32-.492 4.271-1.178 5.853-2.057 1.583-.878 2.778-1.91 3.586-3.093.809-1.184 1.213-2.467 1.213-3.85 0-.82-.146-1.53-.44-2.127a4.71 4.71 0 0 0-1.212-1.547 7.28 7.28 0 0 0-1.846-1.107 15.621 15.621 0 0 0-2.338-.774 30.004 30.004 0 0 0-2.865-.597 61.931 61.931 0 0 0-3.146-.422 145.468 145.468 0 0 0-3.252-.317c-1.09-.093-2.162-.187-3.217-.28l-5.414-.458c-4.266-.351-7.986-.896-11.162-1.635-3.176-.738-5.819-1.687-7.928-2.847-2.11-1.16-3.691-2.55-4.746-4.166C.618 24.102.09 22.215.09 20.059c0-2.204.498-4.225 1.494-6.065.996-1.84 2.355-3.498 4.078-4.974 1.723-1.477 3.738-2.76 6.047-3.85a46.115 46.115 0 0 1 7.4-2.725A58.752 58.752 0 0 1 27.267.811a64.728 64.728 0 0 1 8.297-.545c3.398 0 6.357.205 8.876.615 2.52.41 4.676.937 6.47 1.582 1.792.644 3.263 1.377 4.411 2.197 1.149.82 2.075 1.63 2.778 2.426 1.664 1.945 2.496 4.16 2.496 6.644 0 .82-.082 1.606-.246 2.356zm8.332 32.977c-.82 1.335-1.776 2.39-2.866 3.164-1.09.773-2.185 1.16-3.287 1.16-.89 0-1.687-.164-2.39-.492a5.417 5.417 0 0 1-1.828-1.39c-.516-.597-.909-1.317-1.178-2.161-.27-.844-.404-1.793-.404-2.848 0-1.64.158-3.094.474-4.36.317-1.265.662-2.325 1.037-3.18.375-.856.727-1.507 1.055-1.952l.492-.668c.117-.14.264-.246.44-.316.175-.07.357-.106.545-.106.375 0 .685.135.931.404.246.27.37.58.37.932 0 .14-.03.281-.089.422a6.74 6.74 0 0 1-.193.422c-.117.21-.305.533-.562.967-.258.433-.528 1.001-.809 1.705a16.16 16.16 0 0 0-.738 2.478c-.211.95-.317 2.033-.317 3.252 0 1.383.276 2.432.826 3.147.551.714 1.33 1.072 2.338 1.072.422 0 .909-.135 1.46-.404.55-.27 1.09-.686 1.617-1.248.527-.563.99-1.278 1.388-2.145.399-.867.656-1.887.774-3.059l.527-6.047c.047-.351.2-.644.457-.878.258-.235.563-.352.914-.352.399 0 .715.147.95.44.234.292.35.626.35 1.001l-.456 5.836c-.047.493-.03 1.137.053 1.934.082.797.252 1.582.51 2.355a5.327 5.327 0 0 0 1.16 1.987c.515.55 1.195.826 2.039.826.609 0 1.207-.158 1.793-.475a7.838 7.838 0 0 0 1.687-1.248 12.019 12.019 0 0 0 1.494-1.74c.457-.644.88-1.295 1.266-1.951.387-.656.72-1.283 1.002-1.881.281-.598.515-1.107.703-1.53.117-.257.281-.456.492-.597.211-.14.445-.21.703-.21.422 0 .75.14.985.421.234.281.351.586.351.914 0 .188-.035.363-.105.527-.094.188-.276.58-.545 1.178-.27.598-.621 1.277-1.055 2.04a26.732 26.732 0 0 1-1.564 2.407c-.61.844-1.29 1.623-2.04 2.338-.75.715-1.564 1.301-2.443 1.758a6.045 6.045 0 0 1-2.83.686c-1.383 0-2.531-.393-3.445-1.178-.914-.785-1.594-1.904-2.04-3.358zm26.261 7.382c4.407-5.742 7.465-10.511 9.176-14.308.117-.258.276-.451.475-.58.199-.13.428-.194.685-.194.399 0 .727.135.985.405s.386.58.386.931c0 .164-.035.328-.105.492-1.031 2.344-2.496 4.957-4.395 7.84-1.898 2.883-4.3 6.14-7.207 9.774 0 1.476.012 2.953.036 4.43.023 1.476.035 3.093.035 4.85 0 1.759-.041 3.499-.123 5.222a56.92 56.92 0 0 1-.44 4.922c-.21 1.558-.498 3-.861 4.324-.363 1.324-.832 2.472-1.406 3.445-.575.973-1.266 1.734-2.075 2.285-.808.551-1.763.826-2.865.826-1.57 0-2.777-.597-3.62-1.793-.845-1.195-1.267-2.894-1.267-5.097 0-1.172.112-2.444.334-3.815.223-1.37.545-2.783.967-4.236a47.042 47.042 0 0 1 1.53-4.412 50.236 50.236 0 0 1 1.986-4.342 42.998 42.998 0 0 1 2.373-4.043 29.089 29.089 0 0 1 2.725-3.516c.023-1.64.04-3.27.052-4.886.012-1.617.041-3.106.088-4.465a7.88 7.88 0 0 1-2.514 2.11c-.972.515-1.939.773-2.9.773-.82 0-1.564-.158-2.232-.475a4.861 4.861 0 0 1-1.705-1.336 6.323 6.323 0 0 1-1.09-2.021 7.961 7.961 0 0 1-.387-2.532c0-1.828.31-3.439.932-4.834.62-1.394 1.412-2.56 2.373-3.498.96-.937 2.021-1.64 3.181-2.109 1.16-.469 2.28-.703 3.358-.703.726 0 1.394.094 2.004.281.61.188 1.13.399 1.564.633.434.234.768.457 1.002.668.234.21.363.328.387.352.258.28.387.597.387.949 0 .351-.13.662-.387.931-.258.27-.563.405-.914.405-.328 0-.645-.13-.95-.387a8.523 8.523 0 0 1-.369-.299 4.03 4.03 0 0 0-.597-.404 3.816 3.816 0 0 0-.88-.352 4.6 4.6 0 0 0-1.212-.14c-.703 0-1.477.158-2.32.474-.844.317-1.63.815-2.356 1.494-.726.68-1.336 1.553-1.828 2.62-.492 1.066-.738 2.35-.738 3.85 0 1.124.246 2.032.738 2.724.492.691 1.254 1.037 2.285 1.037.492 0 1.014-.14 1.565-.422.55-.281 1.084-.715 1.6-1.3.515-.587.966-1.325 1.353-2.216.387-.89.662-1.945.826-3.164.047-.328.2-.603.457-.826.258-.223.562-.334.914-.334.398 0 .709.14.932.422.222.281.334.598.334.95l-.035 1.071a214.88 214.88 0 0 0-.07 2.76c-.024 1.149-.054 2.479-.089 3.99a513.733 513.733 0 0 0-.088 4.8zm-2.671 7.7a35.173 35.173 0 0 0-2.989 4.974 46.109 46.109 0 0 0-2.285 5.432 39.937 39.937 0 0 0-1.459 5.326c-.34 1.723-.51 3.264-.51 4.623 0 .867.077 1.559.229 2.074.152.516.34.914.562 1.196.223.28.47.468.739.562.27.094.521.14.756.14.726 0 1.359-.292 1.898-.878.539-.586.996-1.365 1.371-2.338.375-.973.68-2.092.914-3.358.234-1.265.41-2.572.527-3.92.118-1.347.2-2.689.247-4.025.046-1.336.07-2.566.07-3.691v-3.024c0-1.008-.024-2.039-.07-3.093zm39.023-20.954c-.094.188-.287.58-.58 1.178a31.784 31.784 0 0 1-2.725 4.482c-.61.844-1.289 1.618-2.039 2.32a11.123 11.123 0 0 1-2.426 1.741 5.8 5.8 0 0 1-2.742.686c-1.36 0-2.502-.434-3.427-1.301-.926-.867-1.6-1.957-2.022-3.27-.797 1.336-1.746 2.397-2.848 3.182-1.101.785-2.203 1.178-3.304 1.178-.867 0-1.653-.158-2.356-.475a5.07 5.07 0 0 1-1.793-1.336 6.21 6.21 0 0 1-1.142-2.021 7.644 7.644 0 0 1-.405-2.532c0-1.828.31-3.439.932-4.834.621-1.394 1.412-2.56 2.373-3.498.961-.937 2.022-1.64 3.182-2.109 1.16-.469 2.279-.703 3.357-.703.727 0 1.395.1 2.004.299.61.199 1.13.416 1.564.65.434.235.768.451 1.002.65.235.2.364.311.387.334.258.305.387.622.387.95 0 .351-.129.662-.387.931-.258.27-.562.405-.914.405a1.29 1.29 0 0 1-.95-.387 3.98 3.98 0 0 0-.984-.668 5.465 5.465 0 0 0-1.001-.37 5.02 5.02 0 0 0-1.319-.157c-.726 0-1.5.164-2.32.492-.82.328-1.57.838-2.25 1.53-.68.69-1.248 1.558-1.705 2.6-.457 1.044-.686 2.28-.686 3.71 0 .445.047.896.14 1.353.095.457.259.873.493 1.248.234.375.55.68.95.914.398.235.89.352 1.476.352.422 0 .908-.14 1.459-.422.55-.281 1.078-.715 1.582-1.3.504-.587.96-1.325 1.371-2.216.41-.89.697-1.945.861-3.164.047-.328.2-.603.457-.826.258-.223.563-.334.914-.334.329 0 .616.129.862.387s.38.55.404.879c.023.445.07 1.072.14 1.88.071.81.23 1.612.475 2.409a5.88 5.88 0 0 0 1.108 2.074c.492.586 1.172.879 2.039.879.562 0 1.119-.152 1.67-.457a7.875 7.875 0 0 0 1.617-1.213 13.696 13.696 0 0 0 1.512-1.723c.48-.644.92-1.295 1.318-1.95.398-.657.75-1.29 1.055-1.9.304-.609.562-1.136.773-1.581a1.345 1.345 0 0 1 1.23-.809c.399 0 .721.147.967.44.246.293.37.603.37.931 0 .164-.036.328-.106.492zm1.266-4.64a17.63 17.63 0 0 1-.352 1.775c-.14.551-.275 1.031-.404 1.442-.13.41-.24.744-.334 1.002-.094.257-.153.398-.176.421-.234.54-.645.809-1.23.809-.329 0-.633-.123-.915-.37a1.185 1.185 0 0 1-.421-.93c0-.141.023-.247.07-.317.047-.07.117-.211.21-.422.095-.211.212-.563.352-1.055.141-.492.317-1.254.528-2.285-.399 0-.809-.012-1.23-.035a3.83 3.83 0 0 1-1.178-.246 2.037 2.037 0 0 1-.897-.668c-.234-.305-.352-.727-.352-1.266 0-.398.112-.937.334-1.617.223-.68.522-1.348.897-2.004a8.374 8.374 0 0 1 1.266-1.705c.468-.48.937-.72 1.406-.72.539 0 .978.199 1.318.597.34.398.604.885.791 1.459.188.574.322 1.178.404 1.81.083.633.124 1.184.124 1.653.398 0 .79-.006 1.177-.018.387-.011.756-.017 1.108-.017 1.336 0 2.355.293 3.058.879.703.586 1.055 1.547 1.055 2.882 0 .54-.035 1.102-.105 1.688a60.18 60.18 0 0 1-.247 1.81 53.304 53.304 0 0 0-.246 1.846c-.07.61-.105 1.207-.105 1.793 0 .844.117 1.541.351 2.092.235.55.528.99.88 1.318.35.328.726.557 1.124.686a3.57 3.57 0 0 0 1.09.193c1.008 0 1.957-.328 2.848-.984.89-.656 1.71-1.447 2.46-2.373a22.889 22.889 0 0 0 2.022-2.936 63.57 63.57 0 0 0 1.494-2.707c.118-.21.282-.375.493-.492.21-.117.433-.176.668-.176.421 0 .75.135.984.405.234.27.351.568.351.896 0 .234-.046.445-.14.633-.54.96-1.166 2.045-1.881 3.252a23.289 23.289 0 0 1-2.443 3.392 14.128 14.128 0 0 1-3.077 2.672 6.813 6.813 0 0 1-3.744 1.09c-.843 0-1.64-.158-2.39-.474a5.565 5.565 0 0 1-1.951-1.372c-.551-.597-.99-1.336-1.319-2.214-.328-.88-.492-1.87-.492-2.971 0-1.172.117-2.338.352-3.498.234-1.16.351-2.268.351-3.322 0-.446-.1-.78-.299-1.002-.199-.223-.638-.334-1.318-.334h-1.072c-.387 0-.803.011-1.248.035zm-2.356-2.602c0-.164-.006-.38-.017-.65a8.625 8.625 0 0 0-.07-.791 4.137 4.137 0 0 0-.141-.668c-.059-.188-.123-.281-.194-.281-.07 0-.158.087-.263.263a7.566 7.566 0 0 0-.65 1.424 9.894 9.894 0 0 0-.212.703h1.547zm36.703 13.184a7.57 7.57 0 0 1-1.547-.14 10.313 10.313 0 0 1-1.265 1.95 8.333 8.333 0 0 1-1.705 1.565 8.24 8.24 0 0 1-2.162 1.054 8.409 8.409 0 0 1-2.602.387c-1.102 0-2.11-.193-3.023-.58a7.309 7.309 0 0 1-2.391-1.617 7.21 7.21 0 0 1-1.582-2.496c-.375-.973-.563-2.045-.563-3.217 0-1.5.27-2.807.809-3.92.54-1.113 1.16-2.039 1.863-2.777.703-.738 1.407-1.29 2.11-1.653.703-.363 1.23-.544 1.582-.544.398 0 .697.105.896.316.2.21.299.492.299.844 0 .398-.123.697-.37.896a5.13 5.13 0 0 1-.93.58 6.76 6.76 0 0 0-1.196.791c-.422.34-.815.768-1.178 1.283a6.994 6.994 0 0 0-.896 1.829c-.235.703-.352 1.488-.352 2.355 0 .774.117 1.494.352 2.162a4.871 4.871 0 0 0 1.02 1.723c.445.48.972.855 1.581 1.125.61.27 1.29.404 2.04.404 1.335 0 2.443-.31 3.322-.932a6.182 6.182 0 0 0 2.021-2.373 9.183 9.183 0 0 1-3.41-3.093c-.89-1.336-1.336-2.836-1.336-4.5 0-1.336.322-2.426.967-3.27.644-.844 1.494-1.265 2.549-1.265.632 0 1.23.152 1.793.457.562.304 1.06.785 1.494 1.441.433.656.779 1.5 1.037 2.531.258 1.031.387 2.262.387 3.692 0 .75-.094 1.535-.282 2.355.14.024.282.035.422.035h.457c.797 0 1.512-.093 2.145-.281a5.617 5.617 0 0 0 1.722-.844 6.043 6.043 0 0 0 1.39-1.441 14.87 14.87 0 0 0 1.177-2.04c.07-.14.222-.275.457-.404.234-.128.469-.193.703-.193.305 0 .592.123.861.37.27.245.405.568.405.966 0 .188-.047.393-.141.615-.094.223-.188.428-.281.616a14.405 14.405 0 0 1-1.389 2.021 8.558 8.558 0 0 1-1.863 1.688 9.32 9.32 0 0 1-2.408 1.142c-.891.281-1.887.41-2.989.387zm-6.011-8.86c0 .446.058.914.175 1.407.118.492.3.978.545 1.459.246.48.551.937.914 1.37.364.434.791.803 1.284 1.108.07-.492.105-.972.105-1.441 0-.633-.047-1.278-.14-1.934a11.14 11.14 0 0 0-.405-1.81c-.176-.551-.393-.996-.65-1.336-.258-.34-.563-.51-.914-.51-.141 0-.329.105-.563.316-.234.211-.351.668-.351 1.371z"/>
</svg>
